<svg xmlns="http://www.w3.org/2000/svg" width="900" height="520" viewBox="0 0 900 520">
  <defs>
    <linearGradient id="chrome" x1="0" x2="0" y1="0" y2="1">
      <stop offset="0" stop-color="#0b1412"/>
      <stop offset="1" stop-color="#0e1916"/>
    </linearGradient>
    <linearGradient id="screen" x1="0" x2="1">
      <stop offset="0" stop-color="#07110e"/>
      <stop offset="1" stop-color="#0a1815"/>
    </linearGradient>
    <filter id="glow" x="-50%" y="-50%" width="200%" height="200%">
      <feGaussianBlur stdDeviation="2.0" result="b"/>
      <feMerge><feMergeNode in="b"/><feMergeNode in="SourceGraphic"/></feMerge>
    </filter>
  </defs>
  <rect x="0" y="0" width="900" height="520" rx="16" fill="url(#chrome)"/>
  <rect x="14" y="14" width="872" height="492" rx="12" fill="url(#screen)" stroke="rgba(0,245,196,0.25)"/>
  <circle cx="36" cy="34" r="6" fill="#ff5f56"/><circle cx="58" cy="34" r="6" fill="#ffbd2e"/><circle cx="80" cy="34" r="6" fill="#27c93f"/>
  <text x="450" y="38" text-anchor="middle" font-family="JetBrains Mono, monospace" font-size="14" fill="#a2b9b2">/home/skm — bash</text>
  <g font-family="JetBrains Mono, monospace" font-size="16" fill="#e6f3ee">
    <text x="32" y="78" fill="#00f5c4">skm@webster</text><text x="156" y="78">$</text><text x="176" y="78"> whoami</text>
    <text x="32" y="106">sai.krishna.masetti</text>
    <text x="32" y="142" fill="#00f5c4">skm@webster</text><text x="156" y="142">$</text><text x="176" y="142"> uname -a</text>
    <text x="32" y="170">Linux kali 6.8.0 #1 SMP x86_64 GNU/Linux</text>
    <text x="32" y="206" fill="#00f5c4">skm@webster</text><text x="156" y="206">$</text><text x="176" y="206"> cat ~/profile.txt</text>
    <text x="48" y="236">Name: Sai Krishna Masetti</text>
    <text x="48" y="260">Role: SOC / Cloud Security</text>
    <text x="48" y="284">Skills: Splunk, QRadar, Sentinel, AWS, Azure, GCP, Python</text>
    <text x="48" y="308">Frameworks: NIST CSF, ISO 27001, MITRE ATT&amp;CK</text>
    <text x="48" y="332">Certs: Google Cybersecurity, Security+, ISC2 CC</text>
    <text x="48" y="356">Email: saikrishnamasetti369@gmail.com</text>
    <text x="48" y="380">LinkedIn: linkedin.com/in/sai-krishna-masetti</text>
    <text x="32" y="416" fill="#00f5c4">skm@webster</text><text x="156" y="416">$</text><text x="176" y="416"> echo "defend, detect, respond"</text>
    <text x="32" y="444" fill="#7b61ff" filter="url(#glow)">defend, detect, respond</text>
  </g>
</svg>
